<?xml version="1.0" standalone="no"?>
<!DOCTYPE svg PUBLIC "-//W3C//DTD SVG 20010904//EN"
 "http://www.w3.org/TR/2001/REC-SVG-20010904/DTD/svg10.dtd">
<svg version="1.0" xmlns="http://www.w3.org/2000/svg"
 width="49.000000pt" height="36.000000pt" viewBox="0 0 49.000000 36.000000"
 preserveAspectRatio="xMidYMid meet">

<g transform="translate(0.000000,36.000000) scale(0.100000,-0.100000)"
fill="#000000" stroke="none">
<path d="M367 349 c-25 -15 -10 -31 22 -24 39 8 69 -25 53 -60 -15 -32 -44
-32 -113 0 -87 40 -172 42 -228 6 -17 -11 -9 -46 19 -81 l19 -25 42 23 c47 27
63 23 22 -5 -47 -33 -62 -35 -87 -10 -13 13 -26 30 -29 38 -4 11 -13 6 -36
-18 -41 -44 -63 -130 -45 -177 9 -24 40 -19 58 9 10 15 26 25 41 25 15 0 31
-10 41 -25 21 -32 41 -32 66 1 25 32 68 30 83 -4 9 -21 14 -22 65 -17 43 5 61
13 83 36 27 29 36 59 17 59 -5 0 -10 -7 -10 -15 0 -25 -38 -55 -70 -55 -30 0
-35 9 -22 42 5 13 11 15 22 8 27 -17 43 -11 20 8 l-22 18 22 24 c15 17 20 20
16 8 -4 -14 1 -18 24 -18 27 0 30 3 30 31 0 27 -2 30 -15 19 -22 -18 -18 -6
10 36 34 50 32 88 -4 125 -30 30 -63 36 -94 18z m-27 -139 c0 -5 -4 -10 -9
-10 -6 0 -13 5 -16 10 -3 6 1 10 9 10 9 0 16 -4 16 -10z"/>
</g>
</svg>
